<?xml version="1.0" encoding="UTF-8"?>
<svg version="1.1" xmlns="http://www.w3.org/2000/svg" width="353" height="353">
<path d="M0 0 C1.1238485 -0.01469078 1.1238485 -0.01469078 2.270401 -0.02967834 C19.21002305 -0.20534137 35.50863724 0.03292983 52.03125 4.23828125 C53.33400879 4.56771729 53.33400879 4.56771729 54.66308594 4.90380859 C66.26670275 7.93447598 77.24814256 12.00978394 88.03125 17.23828125 C88.70188477 17.55603516 89.37251953 17.87378906 90.06347656 18.20117188 C123.61917827 34.25850153 151.13219925 62.26336536 168.03125 95.23828125 C168.38171387 95.9147168 168.73217773 96.59115234 169.09326172 97.28808594 C179.8421399 118.27045119 187.08807688 142.64869922 187.234375 166.34765625 C187.24143463 167.10778015 187.24849426 167.86790405 187.25576782 168.65106201 C187.48435042 200.4991549 187.48435042 200.4991549 184.03125 214.23828125 C183.82193848 215.08197266 183.61262695 215.92566406 183.39697266 216.79492188 C171.78853909 262.37424915 144.66842578 303.13833052 103.96484375 327.765625 C100.04958934 330.04514553 96.06354177 332.17402337 92.03125 334.23828125 C91.41427246 334.55635742 90.79729492 334.87443359 90.16162109 335.20214844 C65.64920657 347.67006271 38.57838191 353.68751164 11.15625 353.61328125 C10.39456512 353.61273743 9.63288025 353.6121936 8.84811401 353.6116333 C-17.77447542 353.5247801 -42.9925135 347.86384362 -66.96875 336.23828125 C-67.63938477 335.92052734 -68.31001953 335.60277344 -69.00097656 335.27539062 C-102.57902208 319.20736885 -130.03275772 291.21009313 -146.96875 258.23828125 C-147.31389648 257.57779785 -147.65904297 256.91731445 -148.01464844 256.23681641 C-168.84789451 215.9689882 -172.26167694 167.17281461 -158.97607422 123.98706055 C-153.32966023 106.54015264 -145.85988853 90.05189879 -134.96875 75.23828125 C-134.23398438 74.21992187 -133.49921875 73.2015625 -132.7421875 72.15234375 C-124.20512368 60.55472313 -114.33224589 49.13903997 -102.96875 40.23828125 C-102.43088867 39.8098291 -101.89302734 39.38137695 -101.33886719 38.93994141 C-91.7301805 31.32565426 -81.87478338 24.83472579 -70.96875 19.23828125 C-70.36772461 18.92552246 -69.76669922 18.61276367 -69.14746094 18.29052734 C-52.12456411 9.53629488 -33.81755867 4.27091635 -14.96875 1.23828125 C-13.88899902 1.06321045 -12.80924805 0.88813965 -11.69677734 0.70776367 C-7.78603047 0.21527079 -3.93499288 0.04258803 0 0 Z " fill="#FEFEFE" transform="translate(165.96875,-0.23828125)"/>
<path d="M0 0 C2.11949781 1.23871978 4.03348115 2.52511086 6 4 C5.38353163 8.00225317 4.10770326 11.13536305 2.27734375 14.73828125 C1.47006836 16.33833008 1.47006836 16.33833008 0.64648438 17.97070312 C0.08251953 19.07349609 -0.48144531 20.17628906 -1.0625 21.3125 C-1.63033203 22.43462891 -2.19816406 23.55675781 -2.78320312 24.71289062 C-4.18342977 27.47804408 -5.58918665 30.24023716 -7 33 C-12.73128948 31.13012847 -18.15274378 28.78558935 -23.66015625 26.33984375 C-29.1757788 24.12714371 -34.16039635 23.81790981 -40.0625 23.8125 C-40.76955078 23.80025391 -41.47660156 23.78800781 -42.20507812 23.77539062 C-45.96914521 23.76478762 -48.80796912 23.90237971 -52 26 C-52.04521864 28.64277834 -52.05479933 31.27492138 -52.00390625 33.91796875 C-52 37 -52 37 -52.33984375 39.67578125 C-52.53222082 42.69281672 -52.39479932 44.29644417 -51 47 C-46.78429144 49.99087431 -42.26023707 51.93573135 -37.50927734 53.93310547 C-33.90307875 55.46638897 -30.35294092 57.11092797 -26.80566406 58.77539062 C-25.02656602 59.61015432 -23.24101599 60.43135461 -21.44824219 61.23632812 C-15.27045035 64.09346771 -10.23799473 67.68040256 -5 72 C-3.453125 73.1446875 -3.453125 73.1446875 -1.875 74.3125 C4.84499532 80.59423475 10.97586641 89.12332608 11.36328125 98.55859375 C11.36196859 100.18498339 11.34478891 101.81143038 11.3125 103.4375 C11.31572266 104.24509766 11.31894531 105.05269531 11.32226562 105.88476562 C11.26961389 111.82483913 10.69784644 117.60430713 8 123 C5.87904744 123.15533737 3.75145326 123.22232382 1.625 123.25 C-6.63675369 123.74637828 -13.09048064 125.9724871 -18.94140625 132 C-23.69731673 138.05089333 -25.23221988 143.45016211 -26 151 C-43.53645422 156.15778065 -61.24592102 154.44420932 -79 151 C-79 150.34 -79 149.68 -79 149 C-80.19625 148.67 -81.3925 148.34 -82.625 148 C-87.11467166 146.51056924 -91.15641661 144.40415476 -95.25 142.0625 C-95.83990723 141.72669922 -96.42981445 141.39089844 -97.03759766 141.04492188 C-100.60808586 138.95852188 -103.83552252 136.65887488 -107 134 C-106.41302996 130.06672744 -105.21664866 127.25514797 -103.19921875 123.83984375 C-102.63396484 122.88142578 -102.06871094 121.92300781 -101.48632812 120.93554688 C-100.89271484 119.94619141 -100.29910156 118.95683594 -99.6875 117.9375 C-99.10548828 116.94427734 -98.52347656 115.95105469 -97.92382812 114.92773438 C-95.25862918 110.44549154 -92.82886402 106.58582749 -89 103 C-86.69 104.65 -84.38 106.3 -82 108 C-82.08564209 107.10394043 -82.17128418 106.20788086 -82.25952148 105.28466797 C-82.58326601 101.88895736 -82.90550803 98.49311056 -83.22680664 95.09716797 C-83.36489758 93.64073256 -83.50354918 92.18435018 -83.64282227 90.72802734 C-83.84547156 88.60789144 -84.04637036 86.48760098 -84.24609375 84.3671875 C-84.31194672 83.66905945 -84.37779968 82.9709314 -84.44564819 82.25164795 C-84.9869626 76.3951238 -85.38793432 70.53579383 -85.73852539 64.66455078 C-85.83683854 62.02821921 -85.83683854 62.02821921 -87 60 C-90.56487939 68.27650974 -93.71189185 76.6276828 -96.6171875 85.15625 C-97.25987775 87.02654964 -97.90256831 88.89684917 -98.54527473 90.76714325 C-99.43476888 93.35887483 -100.32061611 95.95184709 -101.20654297 98.5447998 C-102.3084069 101.76769144 -103.41397363 104.98931142 -104.51953125 108.2109375 C-105.80912054 111.96896966 -107.09860827 115.72703535 -108.38665771 119.4855957 C-111.87995188 129.67295324 -115.42837539 139.83984716 -119 150 C-126.26 150 -133.52 150 -141 150 C-147.79418831 131.05348367 -154.51216331 112.08156341 -161.15380859 93.08105469 C-162.40399936 89.5050708 -163.65804454 85.93044965 -164.9127903 82.35606194 C-165.8910712 79.56708261 -166.86661445 76.7771516 -167.84138107 73.98694229 C-168.30365253 72.66525282 -168.76696023 71.34392529 -169.23134232 70.02297592 C-169.87019118 68.20497642 -170.50478867 66.38548464 -171.13916016 64.56591797 C-171.49982574 63.53562469 -171.86049133 62.50533142 -172.23208618 61.44381714 C-173 59 -173 59 -173 57 C-173.66 57 -174.32 57 -175 57 C-174.97777122 58.11256416 -174.97777122 58.11256416 -174.95509338 59.24760437 C-174.8533952 68.54345793 -175.48875337 77.70655908 -176.27734375 86.95703125 C-176.40988746 88.55592957 -176.54200497 90.15486327 -176.67372131 91.75382996 C-176.94875764 95.07957446 -177.22722334 98.40500596 -177.50854492 101.73022461 C-177.86752986 105.97390655 -178.22036709 110.21807021 -178.57096004 114.46245289 C-178.90841265 118.5441608 -179.24906103 122.62560028 -179.58984375 126.70703125 C-179.68550282 127.85799254 -179.68550282 127.85799254 -179.78309441 129.03220558 C-179.96553303 131.22059739 -180.15026342 133.40878369 -180.33569336 135.59692383 C-180.4400621 136.83678543 -180.54443085 138.07664703 -180.65196228 139.3540802 C-181.02331968 143.24428866 -181.51528552 147.12228417 -182 151 C-193.88 151 -205.76 151 -218 151 C-216.72797797 130.64764751 -215.10623036 110.38164459 -213.1395874 90.08813477 C-212.59804778 84.49249791 -212.0636296 78.89617876 -211.53009224 73.29977417 C-211.34737528 71.39117196 -211.16213746 69.48281158 -210.97679138 67.57446289 C-210.27913725 60.30616803 -209.7085329 53.04342722 -209.26930237 45.75463867 C-209 43 -209 43 -208 41 C-206.7934375 40.95101562 -205.586875 40.90203125 -204.34375 40.8515625 C-202.72914694 40.77646468 -201.11456461 40.70091997 -199.5 40.625 C-198.70851563 40.5940625 -197.91703125 40.563125 -197.1015625 40.53125 C-182.34017506 39.80528013 -171.19943437 33.61573781 -161 23 C-159.44909745 21.04033244 -158.23030954 19.18100327 -157 17 C-154.23043431 18.38478284 -154.10625576 19.82273397 -153.01635742 22.6965332 C-152.44016914 24.19994011 -152.44016914 24.19994011 -151.8523407 25.73371887 C-151.44087296 26.82834946 -151.02940521 27.92298004 -150.60546875 29.05078125 C-150.17623611 30.17510056 -149.74700348 31.29941986 -149.30476379 32.45780945 C-147.92571517 36.07355713 -146.55624977 39.69284254 -145.1875 43.3125 C-143.82770645 46.89218729 -142.4659064 50.47109849 -141.10237122 54.04936218 C-140.2538388 56.2778858 -139.40772764 58.50733344 -138.5644989 60.73786926 C-135.85096678 67.88703683 -132.98157986 74.95847183 -130 82 C-129.76577835 81.3864566 -129.5315567 80.77291321 -129.29023743 80.14077759 C-126.2977923 72.30213389 -123.30520475 64.46354458 -120.3125 56.625 C-120.07420597 56.00085583 -119.83591194 55.37671165 -119.59039688 54.73365402 C-111.73295936 34.15346338 -103.87116234 13.57494577 -96 -7 C-94.41916626 -7.029729 -94.41916626 -7.029729 -92.80639648 -7.06005859 C-88.87192111 -7.13650687 -84.93779677 -7.22516177 -81.00366211 -7.31738281 C-79.30549076 -7.35551129 -77.60724308 -7.39039146 -75.90893555 -7.421875 C-73.45854533 -7.46787822 -71.00867333 -7.52581151 -68.55859375 -7.5859375 C-67.80726669 -7.59748871 -67.05593964 -7.60903992 -66.28184509 -7.62094116 C-17.88328395 -8.95618123 -17.88328395 -8.95618123 0 0 Z " fill="#010101" transform="translate(278,90)"/>
<path d="M0 0 C7.94190547 2.03638602 15.70994802 6.94217254 20 14 C20.77693928 18.25430831 20.46236268 21.77609878 18.9375 25.8125 C13.96853523 31.42262151 9.08301024 32.26448492 2 33 C1.66129817 29.00043584 1.33001275 25.00028974 1 21 C0.90460938 19.87464844 0.80921875 18.74929687 0.7109375 17.58984375 C0.22901393 11.70349155 -0.11580219 5.9059119 0 0 Z " fill="#F7F7F7" transform="translate(230,177)"/>
<path d="M0 0 C5.46341463 2.92682927 5.46341463 2.92682927 7 6 C7.51512617 10.09157355 7.94367269 14.23589546 5.953125 17.95703125 C2.86793919 21.68647644 1.03209251 22.89679075 -3.75 23.375 C-7.10058068 23.35058775 -8.84894532 22.75601354 -11.4375 20.625 C-14.65226494 17.33182616 -15.21336749 15.73265011 -15.4375 11.25 C-15.38319008 7.50261564 -15.04363171 5.23995319 -12.5625 2.375 C-8.71279488 -0.82853712 -4.78561571 -1.02548908 0 0 Z " fill="#040404" transform="translate(283,229)"/>
</svg>
